<svg viewBox="0 0 32 32" xml:space="preserve" xmlns="http://www.w3.org/2000/svg"><path d="M16.068 5.108c-2.205 0-4.148.699-5.83 2.096-1.682 1.398-2.75 3.2-3.204 5.404-1.334.207-2.488.726-3.466 1.555l.58.58c.14.14.33.218.529.218h3.439a2.636 2.636 0 0 1 2.588-2.19 2.644 2.644 0 0 1 2.41 3.703c-.392.961-1.371 1.553-2.41 1.553a2.635 2.635 0 0 1-2.588-2.19H4.487c-.31 0-.605-.123-.824-.342l-.728-.726c-.078.084-.155.17-.23.259C1.567 16.368 1 17.926 1 19.698c0 2 .699 3.7 2.096 5.097l.028.026 1.405-1.405a2.636 2.636 0 0 1 .282-3.38 2.636 2.636 0 0 1 3.717 0 2.636 2.636 0 0 1 0 3.717v.001a2.637 2.637 0 0 1-3.38.282l-1.366 1.367c1.257.991 2.726 1.49 4.41 1.49H9.58l7.752-7.753a.705.705 0 0 0 .207-.499v-4.609a2.634 2.634 0 0 1-2.185-2.766c.089-1.328 1.212-2.41 2.542-2.45h.138a2.636 2.636 0 0 1 2.57 2.627 2.636 2.636 0 0 1-2.19 2.589V18.8c0 .317-.125.622-.35.847l-7.246 7.245h14.42c1.568 0 2.92-.568 4.057-1.705C30.431 24.051 31 22.7 31 21.13c0-1.681-.569-3.074-1.705-4.176a6.08 6.08 0 0 0-.465-.406l-3.162 3.163a2.635 2.635 0 0 1-.406 3.495c-1.007.887-2.585.851-3.553-.078a2.636 2.636 0 0 1-.04-3.756 2.635 2.635 0 0 1 3.38-.281l3.039-3.04c-.872-.485-1.856-.712-2.952-.682v-.818c0-2.591-.875-4.813-2.625-6.665-1.75-1.852-3.898-2.778-6.443-2.778z" fill="#e0264a" stroke-width=".783"/></svg>